<svg width="868" height="868" viewBox="0 0 868 868" fill="none" xmlns="http://www.w3.org/2000/svg">
<path fill-rule="evenodd" clip-rule="evenodd" d="M152 304C235.947 304 304 235.947 304 152C304 68.0527 235.947 0 152 0C68.0527 0 0 68.0527 0 152C0 235.947 68.0527 304 152 304ZM152 295.556C231.284 295.556 295.556 231.284 295.556 152C295.556 72.7165 231.284 8.44446 152 8.44446C72.7165 8.44446 8.44446 72.7165 8.44446 152C8.44446 231.284 72.7165 295.556 152 295.556Z" transform="translate(130 130) scale(2)" fill="white"/>
<path d="M6.5625 164V94.625H7.96875L28.5938 144.156V164H6.5625ZM6.5625 69V54.625H23.75L53.5938 126.969L70.1562 89.625H71.7188V140.406L61.25 164H46.0938L6.5625 69ZM80.1562 164V54.625H102.188V164H80.1562Z" transform="translate(242 220) scale(2)" fill="white"/>
<path d="M3.125 139.312L22.9688 132.281C22.9688 134.885 23.6979 137.177 25.1562 139.156C26.6146 141.135 28.0729 142.438 29.5312 143.062L31.7188 144.156V164.469C22.8646 164.469 15.3125 160.615 9.0625 152.906C5.20833 148.01 3.22917 143.479 3.125 139.312ZM4.375 84.625C4.375 73.1667 9.27083 64.5729 19.0625 58.8438C23.5417 56.1354 27.7604 54.7292 31.7188 54.625V75.25C29.1146 75.9792 27.1875 77.8542 25.9375 80.875C25.5208 81.8125 25.3125 82.8021 25.3125 83.8438C25.3125 88.1146 28.4896 91.7604 34.8438 94.7812C36.1979 95.4062 38.3854 96.3438 41.4062 97.5938C46.4062 99.5729 49.9479 101.188 52.0312 102.438C60.4688 107.438 66.0938 112.542 68.9062 117.75C70.9896 121.812 72.0312 126.344 72.0312 131.344C72.0312 140.823 68.4375 148.948 61.25 155.719C55.1042 161.552 48.125 164.469 40.3125 164.469V144.156C44.375 143.635 47.2396 141.5 48.9062 137.75C49.6354 136.083 50 134.26 50 132.281C50 126.969 46.0417 122.594 38.125 119.156C36.6667 118.531 34.375 117.646 31.25 116.5C27.6042 115.25 25.0521 114.26 23.5938 113.531C14.6354 109.26 8.90625 103.74 6.40625 96.9688C5.05208 93.3229 4.375 89.2083 4.375 84.625ZM40.3125 75.25V54.625C49.0625 54.625 56.4062 58.3229 62.3438 65.7188C65.7812 70.0938 67.5521 74.0521 67.6562 77.5938L47.3438 84.3125C47.3438 79.9375 45.2083 76.9688 40.9375 75.4062C40.5208 75.3021 40.3125 75.25 40.3125 75.25Z" transform="translate(474 218) scale(2)" fill="white"/>
<path fill-rule="evenodd" clip-rule="evenodd" d="M217 434C336.846 434 434 336.846 434 217C434 97.1542 336.846 0 217 0C97.1542 0 0 97.1542 0 217C0 336.846 97.1542 434 217 434ZM217 402C319.173 402 402 319.173 402 217C402 114.827 319.173 32 217 32C114.827 32 32 114.827 32 217C32 319.173 114.827 402 217 402Z" transform="scale(2)" fill="white"/>
</svg>
